Coordinates
version=1
nRows=10
nColumns=33
inDegrees=yes

Units are S.I. units (second, meters, Newtons, ...)
Angles are in degrees.

endheader
time	ground_thorax_rot_x	ground_thorax_rot_y	ground_thorax_rot_z	ground_thorax_tx	ground_thorax_ty	ground_thorax_tz	clav_prot_r	clav_elev_r	scapula_abduction_r	scapula_elevation_r	scapula_upward_rot_r	scapula_winging_r	shoulder_elv_r	plane_of_elev_r	axial_rot_r	elbow_flexion_r	pro_sup_r	wrist_flex_r	wrist_dev_r	clav_prot_l	clav_elev_l	scapula_abduction_l	scapula_elevation_l	scapula_upward_rot_l	scapula_winging_l	shoulder_elv_l	plane_of_elev_l	axial_rot_l	elbow_flexion_l	pro_sup_l	wrist_flex_l	wrist_dev_l
      5.37000000	     18.80342541	     35.92428530	     58.27575152	    -61.13629180	    774.59387350	     10.57709956	     12.82316161	     36.87619417	     32.81421320	     45.00000000	    -44.00825853	  -1162.75104391	  -3719.95660169	    149.03418496	   -121.34146849	    728.99762518	     26.58297298	     17.01818103	     11.16911402	      7.39794515	    -45.00000000	    -35.06871739	     45.00000000	    -45.00000000	   2615.87228596	  -2811.30745432	     14.57436198	    -72.22795163	    726.88548150	     28.90870281	      8.97729939	    -18.39865663
      5.38000000	     18.58789045	     36.02899500	     58.43652093	    -61.54084962	    774.45895929	     10.56229153	     13.40762405	     37.15300694	     32.46814740	     45.00000000	    -43.74663029	  -1162.75048246	  -3720.01523675	    148.99252606	   -120.76186369	    728.99362909	     26.89457113	     16.83051048	     11.05458682	      7.65811550	    -45.00000000	    -35.31035942	     45.00000000	    -45.00000000	   2615.90441763	  -2811.37621636	     14.53497139	    -71.87734233	    726.76737364	     28.72311588	      9.14061467	    -18.66386557
      5.39000000	     18.84638953	     35.94940316	     58.15134205	    -62.01981198	    774.30251983	     10.54927172	     12.82976192	     36.97876206	     32.71658886	     45.00000000	    -43.51997094	  -1162.85081216	  -3720.10718555	    149.13157355	   -120.65902799	    729.05720945	     27.07915316	     17.08385189	     11.05955648	      7.67639937	    -45.00000000	    -35.08702654	     45.00000000	    -45.00000000	   2615.90505319	  -2811.38048991	     14.60066939	    -71.91406341	    726.82528557	     28.62862378	      9.10038995	    -18.39828837
      5.40000000	     18.75514283	     35.98719025	     58.13245248	    -62.55747753	    774.12703013	     10.53500384	     13.27010875	     37.27898981	     32.38894001	     45.00000000	    -43.37813338	  -1162.79959634	  -3720.06143894	    149.01384717	   -120.65510265	    729.10285130	     27.23947225	     16.88743837	     10.99822449	      7.54505800	    -45.00000000	    -35.28852376	     45.00000000	    -45.00000000	   2615.85301838	  -2811.36637146	     14.53828840	    -71.77991286	    726.76307537	     28.49440278	      9.14945242	    -18.62646164
      5.41000000	     18.97674781	     35.89732915	     57.90525801	    -63.14720673	    773.93530216	     10.51875236	     12.87190977	     36.98552942	     32.74445887	     45.00000000	    -43.31647876	  -1162.88843629	  -3720.13963423	    149.17199888	   -120.60977096	    729.14195678	     27.35949299	     17.16870856	     11.05867861	      7.68810934	    -45.00000000	    -35.05812946	     45.00000000	    -45.00000000	   2615.92531706	  -2811.38504265	     14.66019503	    -71.72947182	    726.76963979	     28.41412440	      9.17790165	    -18.39962265
      5.42000000	     18.90912114	     35.93157882	     57.81300804	    -63.78062324	    773.73219158	     10.49925044	     13.18466431	     37.40797796	     32.31991281	     45.00000000	    -43.04274959	  -1162.80872953	  -3720.08078816	    149.06678163	   -120.64732879	    729.18132660	     27.44569752	     16.94664509	     10.97127688	      7.50716895	    -45.00000000	    -35.29714913	     45.00000000	    -45.00000000	   2615.80291271	  -2811.33017583	     14.58393351	    -71.61130491	    726.72372301	     28.29985170	      9.18869999	    -18.59322903
      5.43000000	     19.16620696	     35.83481468	     57.58034909	    -64.45139793	    773.52336815	     10.47495443	     12.84893254	     36.95684875	     32.79345840	     45.00000000	    -43.05492997	  -1162.97478830	  -3720.19189913	    149.21888149	   -120.57275811	    729.24492033	     27.50457303	     17.26577592	     11.08924110	      7.69415627	    -45.00000000	    -34.99540843	     45.00000000	    -45.00000000	   2615.95124779	  -2811.38946681	     14.76041924	    -71.49388408	    726.73686982	     28.22154974	      9.24456681	    -18.40618850
      5.44000000	     19.11752812	     35.80796639	     57.51262941	    -65.15175259	    773.31544063	     10.44418049	     13.04413369	     37.30373885	     32.65084188	     45.00000000	    -43.03337567	  -1162.87533374	  -3720.07054399	    149.17928549	   -120.59693184	    729.29664439	     27.52499336	     17.09652002	     11.00106047	      7.60124828	    -45.00000000	    -35.19906835	     45.00000000	    -45.00000000	   2615.86547956	  -2811.31688801	     14.69324199	    -71.24994077	    726.67314639	     28.09082145	      9.23234386	    -18.52138635
      5.45000000	     19.22476225	     35.78111893	     57.39594919	    -65.88437165	    773.11286309	     10.40491628	     13.01107870	     37.32840621	     32.73257946	     45.00000000	    -43.23104513	  -1162.95582172	  -3719.99594587	    149.10079752	   -120.58866267	    729.47555970	     27.50011879	     17.17162973	     10.95034241	      7.64984330	    -45.00000000	    -35.17084575	     45.00000000	    -45.00000000	   2615.91818238	  -2811.28512403	     14.69044201	    -71.07343796	    726.78280622	     27.95021912	      9.24602398	    -18.50947557
      5.46000000	     19.28870351	     35.79933973	     57.17721454	    -66.64124500	    772.92380104	     10.35607047	     13.01990714	     37.09502712	     32.60189874	     45.00000000	    -42.87347523	  -1163.04862667	  -3720.09858184	    149.09556958	   -120.84615508	    729.29825612	     27.47658390	     17.21651992	     11.08831123	      7.57011916	    -45.00000000	    -35.28620984	     45.00000000	    -45.00000000	   2615.91100487	  -2811.31312382	     14.81385116	    -71.12921608	    726.73549772	     27.87500792	      9.39971729	    -18.53551573
